<svg id="Group_97425" data-name="Group 97425" xmlns="http://www.w3.org/2000/svg" xmlns:xlink="http://www.w3.org/1999/xlink" width="143.084" height="31.259" viewBox="0 0 143.084 31.259">
  <defs>
    <clipPath id="clip-path">
      <rect id="Rectangle_36661" data-name="Rectangle 36661" width="143.084" height="31.259" fill="rgba(0,0,0,0.87)"/>
    </clipPath>
  </defs>
  <g id="Group_97424" data-name="Group 97424" clip-path="url(#clip-path)">
    <path id="Path_28035" data-name="Path 28035" d="M235.7,93.954a7.805,7.805,0,0,1-4.192-2.207c-2.111-2.311-2.461-6.863-1.819-9.8,1.036-4.737,6.428-8.095,10.758-4.88a6.327,6.327,0,0,1,2.52,4.963c-.025.369-.055.917-.529.923l-10.085.062c-.81,3.017,1.794,7.613,5.053,7.808a5.968,5.968,0,0,0,4.361-2.064c.262-.3,1.022-1.581,1.255-1.652.529-.163.313.74.256,1.039-.468,2.454-3.471,5.532-6.012,5.8a10.446,10.446,0,0,1-1.566,0m-3.061-12.8a1.082,1.082,0,0,0,.459.128l5.805-.014c.422-.123.267-1.372.18-1.72-.821-3.278-5.744-2.944-6.442.435-.052.251-.18,1,0,1.171" transform="translate(-189.828 -62.725)" fill="rgba(0,0,0,0.87)"/>
    <path id="Path_28036" data-name="Path 28036" d="M731.817,33.27c.181-.177.448,0,.485.24s.051.691.062.943c.04.931-.108,2.073,0,2.963a.634.634,0,0,0,.536.525c.748.115,1.834-.129,2.555.016a.647.647,0,0,1,.04,1.243,18.326,18.326,0,0,1-2.708.087c-.595.093-.371.71-.364,1.083.072,3.8-.126,7.63.078,11.423a2.093,2.093,0,0,0,3.356,1.279c.185-.138.621-.641.784-.645.477-.01.261.423.129.663-2.09,3.806-7.014,3.555-7.315-1.1l-.023-12.148a.77.77,0,0,0-.618-.444c-1.555-.177-3.438.129-5.028,0-.591.149-.468.473-.476.915-.061,3.563-.022,7.165.055,10.72a8.316,8.316,0,0,0,.154,2.638,2.129,2.129,0,0,0,1.8.939c.346.262.145.621-.249.642l-6.457-.029c-.59-.614.468-.567.839-.667,1.1-.3.751-1.525.778-2.405.122-4.01.028-8.041.06-12.059.143-1.623-2.853-.019-2.628-1.557.155-1.054,2.416-.065,2.614-.909.2-.871.089-1.91.26-2.811a6.763,6.763,0,0,1,1.875-3.432c2.045-1.854,5.658-2.281,7.8-.36,1.387,1.245.814,3.872-1.35,3.023-.859-.337-.8-.771-1.3-1.379-.768-.929-2.271-1.789-3.374-.91-1.516,1.208-.743,3.909-.934,5.6.138.909,1.145.45,1.76.643,2.469.169,5.115-.654,6.134-3.091.105-.252.143-.521.242-.763.049-.118.389-.836.433-.879" transform="translate(-593.848 -24.637)" fill="rgba(0,0,0,0.87)"/>
    <path id="Path_28037" data-name="Path 28037" d="M393.416,29.031a.722.722,0,0,1,.131.344c.069.618-.018,1.422,0,2.069.047,2.055.07,4.137.116,6.192.014.642-.016,1.287,0,1.928,1.834-1.627,4.28-3.315,6.863-2.527,1.99.607,3.231,3.046,3.367,5.012.16,2.3.078,4.816.115,7.144a16.332,16.332,0,0,0,.116,3.513,1.81,1.81,0,0,0,.957.887c.433.148,1.641.131.924.836-2.437.1-4.9.011-7.341.045-.245-.008-.437-.325-.215-.5a12.985,12.985,0,0,1,1.307-.481,1.285,1.285,0,0,0,.723-.953L400.425,42.1c-.333-4.083-5.435-3.277-6.818-.384l.056,10.431a2.366,2.366,0,0,0,1.168,1.569c.311.1,1.1-.015,1.116.393.019.456-.5.3-.749.3-2.1.009-4.673.176-6.713,0-.2-.017-.529-.08-.465-.353s.921-.3,1.191-.378a1.9,1.9,0,0,0,1.146-1.2c.034-.219-.011-.49,0-.722.22-3.418.06-7.113.053-10.55,0-2.422.109-4.969,0-7.374a5.031,5.031,0,0,0-.326-1.852,1.355,1.355,0,0,0-.942-.572c-.367-.016-1.46.378-1.078-.362l4.859-2.126a.458.458,0,0,1,.486.1" transform="translate(-321.06 -23.912)" fill="rgba(0,0,0,0.87)"/>
    <path id="Path_28038" data-name="Path 28038" d="M641.629,81.914c-1.226.477-2.553.809-3.774,1.283a3.656,3.656,0,0,0-2.47,2.781c-.354,1.851.934,4,3.005,3.559,1.174-.248,2.178-1.747,1.309-2.82-.285-.351-.753-.205-.987-.8-.367-.932.3-1.862,1.3-1.406,1.392.638,1.263,2.633.969,3.87a4.507,4.507,0,0,1-6.653,2.867c-3.247-1.863-2.736-6.456.428-8.078l6.8-2.761.03-.138c-.161-1.764.6-4.05-1.238-5.135-1.26-.744-3.585-.507-4.074,1.059-.31.993.169,1.694-.311,2.648-.993,1.971-3.244.434-2.806-1.462,1.1-4.775,11.108-5.181,11.5.149.26,3.511-.274,7.385,0,10.891.045.584.177,1.288.874,1.362a3.093,3.093,0,0,0,1.16-.395c.211-.112.245-.358.6-.247.634.2.028.767-.2,1.037-.915,1.1-1.737,1.978-3.3,1.841-2.4-.211-2.117-2.47-2.156-4.268-.042-1.944.036-3.893,0-5.837" transform="translate(-523.076 -60.957)" fill="rgba(0,0,0,0.87)"/>
    <path id="Path_28039" data-name="Path 28039" d="M148.127,82.288a7.266,7.266,0,0,0,2.4,6.616c2.35,2.067,5.4,1.225,7.212-1.063.228-.288.887-1.486,1.2-1.477.4.011.179.939.123,1.184a9.088,9.088,0,0,1-2.444,3.868c-4.274,3.967-10,1.136-11.1-4.159-.87-4.184-.2-8.982,3.793-11.288a6.335,6.335,0,0,1,9.424,4.566c.044.352.071,1.453-.251,1.634Zm3.231-5.623a3.471,3.471,0,0,0-3.056,2.978c-.078.484-.221.97.409,1.028,1.827.169,3.91-.134,5.765,0,.387.035.4-.462.415-.757a3.146,3.146,0,0,0-3.533-3.249" transform="translate(-120.144 -62.168)" fill="rgba(0,0,0,0.87)"/>
    <path id="Path_28040" data-name="Path 28040" d="M316.245,76.987c1.815-1.828,5.262-3.192,7.8-2.38a6.577,6.577,0,0,1,3.248,2.675c.879,1.978-1.639,4.09-3.257,1.745-.55-.8-.276-1.534-.883-2.357-.811-1.1-2.625-1-3.7-.361-2.731,1.629-2.949,6.237-2.178,8.964,1.261,4.461,7.309,5.781,9.7,1.5.106-.19.39-.914.462-.99.3-.317.63-.029.576.407a8.821,8.821,0,0,1-1.885,3.924c-3.173,3.609-7.782,3.283-10.525-.6-2.569-3.641-2.584-9.273.647-12.527" transform="translate(-259.618 -61.538)" fill="rgba(0,0,0,0.87)"/>
    <path id="Path_28041" data-name="Path 28041" d="M569.738,90.54a2.171,2.171,0,0,0,.257-.386c.1-4.011.024-8.046.036-12.065a1.707,1.707,0,0,0-1.92-1.6c-.26-.008-.706.183-.8-.149-.086-.294.187-.371.4-.472a35.9,35.9,0,0,1,4.2-1.723c1.636-.488.979,1.03,1.232,2.011,1.181-1.228,3.365-3,5.111-1.865,1.873,1.22.936,3.817-1.072,3.471-.608-.1-1.53-1.213-2.131-1.156a2.906,2.906,0,0,0-1.819,1.761l-.008,6.809c.257,1.38-.153,3.167.072,4.506.185,1.1,1.41,1.341,2.313,1.431.185.019.4-.137.54.189.157.366-.259.465-.544.489-2.4.2-5.17-.092-7.608-.06-.221,0-.559.169-.632-.206-.057-.292.261-.341.482-.39.675-.15,1.359-.034,1.894-.594" transform="translate(-469.43 -61.173)" fill="rgba(0,0,0,0.87)"/>
    <path id="Path_28042" data-name="Path 28042" d="M494.461,74.635a5.422,5.422,0,0,1,2.936.776c.7.427,2.161,1.76,2.271,2.59.25,1.9-1.654,3.205-3.1,1.7-1.042-1.084-.416-2.873-2.138-3.448-1.878-.628-3.573.667-4.458,2.217-1.082,1.892-1.041,6.13-.093,8.078,1.787,3.671,7.069,4.359,9.244.67a12.321,12.321,0,0,1,.576-1.155.324.324,0,0,1,.57.243,8.863,8.863,0,0,1-.413,1.533c-1.637,4.712-7.395,7.013-11.142,3.057-5.323-5.619-2.614-15.945,5.748-16.259" transform="translate(-402.139 -61.758)" fill="rgba(0,0,0,0.87)"/>
    <path id="Path_28043" data-name="Path 28043" d="M.029,10.684C.244,8.153,2.035,5.6,3.857,3.927a13.615,13.615,0,0,1,15.9-2.365c4.877,2.4,7.883,6.878,6.622,12.461a8.852,8.852,0,0,1-6.95,6.71,4.49,4.49,0,0,0,.8.4,5.2,5.2,0,0,1-1.147,9.551c-3.093.972-6.249-.082-7.6-3.1a3.534,3.534,0,0,1,1.223-4.6,1.245,1.245,0,0,1,1.848,1.4c-.132.774-1.25.648-1.526,1.77a2.678,2.678,0,0,0,2.413,3.121,3.615,3.615,0,0,0,3.781-2.853,4.25,4.25,0,0,0-3-5.181c-.344-.12-1.521-.323-1.676-.559-.208-.317-.032-.541.266-.677.839-.383,2.12-.57,3.071-.953,3.694-1.485,5.188-5.713,4.026-9.408-1.289-4.1-6.43-6.45-10.5-6.213-4.388.256-9.1,3.612-9.635,8.189A4.735,4.735,0,0,0,3,15.34c.508.45.917.177,1.475.2,1.26.053,2.32.871,1.772,2.215-.849,2.084-3.462.753-4.481-.458A10.383,10.383,0,0,1,.029,12.359a12.278,12.278,0,0,1,0-1.675" transform="translate(0 0)" fill="rgba(0,0,0,0.87)"/>
    <path id="Path_28044" data-name="Path 28044" d="M33.041,36.625c.518-.11.648.1.689.572-.043,6.791.076,13.6-.06,20.378-.1.778.152,2-.009,2.726a.687.687,0,0,1-.574.488c-1.484.177-3.33-.124-4.852-.014-.435-.108-.479-.46-.029-.616.832-.288,1.3-.191,1.911-.994.667-.879.431-1.659.422-2.644-.05-5.074.231-10.378-.056-15.41-.015-.269.033-.573,0-.835a1.826,1.826,0,0,0-1.033-1.2c-.248-.038-1.577.164-1.146-.427.1-.144,2.32-.963,2.686-1.114a19.45,19.45,0,0,1,2.055-.907" transform="translate(-23.076 -30.283)" fill="rgba(0,0,0,0.87)"/>
  </g>
</svg>
