<svg xmlns="http://www.w3.org/2000/svg" width="67.117" height="69.826" viewBox="0 0 67.117 69.826">
  <path id="Path_28032" data-name="Path 28032" d="M68.216,2.834H21.16V17.879H47.475a14.947,14.947,0,0,0,10.681-4.653L68.216,2.834ZM21.194,25.674H45.651L35.9,35.6c-2.787,2.791-6.346,5.273-11.609,5.273h-3.1v-15.2Zm30,29.883V31.207L40.976,41.6c-1.7,1.861-4.334,4.033-4.334,9v4.963h14.55Zm7.827.057V28.628c0-2.792,0-5.273,2.941-8.375L73.5,8.31V55.615H59.019Zm9.85,4.612c-2.586,0-4.541,1.088-4.681,3.786h2.469a1.981,1.981,0,0,1,2.115-1.761c1.114,0,2.017.181,1.992,1.544-.018.962-1.186,1.19-3.126,1.48-1.674.229-3.864,1.16-4.461,2.869V65.178c0-2.859-.577-4.738-3.942-4.757a4.757,4.757,0,0,0-2.9,1.068h-.066l-.387-.755h-2.7V67.88c-.331-1.6-1.839-2.17-3.472-2.545-1.806-.425-3.8-.581-3.82-1.719-.023-1.184,1.279-1.228,1.993-1.228A2.24,2.24,0,0,1,50.2,64.107h2.467c-.245-2.837-2.311-3.918-4.7-3.918-2.474,0-4.813,1.235-4.783,3.746.025,2.032,1.6,2.874,3.423,3.276C48.883,67.7,50.2,68.037,50.2,69c0,1.117-1.159,1.591-2.073,1.591a3.2,3.2,0,0,1-2.932-2.059H42.875c-.024-2.108-1.7-2.772-3.538-3.194-1.806-.425-3.8-.581-3.821-1.719-.023-1.184,1.28-1.228,1.993-1.228a2.241,2.241,0,0,1,2.317,1.719h2.467c-.245-2.837-2.311-3.918-4.7-3.918-2.474,0-4.813,1.235-4.783,3.746.025,2.032,1.6,2.874,3.423,3.276,2.273.491,3.589.827,3.589,1.787,0,1.117-1.159,1.591-2.073,1.591a3.2,3.2,0,0,1-2.934-2.066H32.393l0-.009H29.59a2.93,2.93,0,0,1-2.613,1.69c-1.761,0-2.742-.916-2.831-2.926h8.082c.223-3.551-1.44-6.857-5.363-6.857a5.785,5.785,0,0,0-5.884,6.1c0,.134,0,.265.01.4H18.21a4.035,4.035,0,0,1-4.23,3.031c-3.143-.011-4.324-2.913-4.324-5.571,0-2.792,1.181-5.744,4.324-5.744,2.861,0,3.519,1.4,3.9,2.637h3.04c-.346-3.259-3.152-5.081-6.942-5.081-4.337,0-7.514,3.452-7.514,8.187,0,4.6,2.945,8.286,7.514,8.286a6.989,6.989,0,0,0,7.086-4.992,5.518,5.518,0,0,0,5.8,4.925,5.273,5.273,0,0,0,5.4-3.7,5.283,5.283,0,0,0,5.469,3.7c2.387,0,4.678-.809,5.081-3.23a5.276,5.276,0,0,0,5.29,3.23c2.378,0,4.66-.8,5.077-3.2v2.89h2.855V66.228c0-2.345.742-3.3,2.22-3.3s1.912.938,1.912,2.837v6.521h3.01V70.025a3.784,3.784,0,0,0,3.649,2.451A5.644,5.644,0,0,0,70.9,71.163a4.738,4.738,0,0,0,.223,1.117l2.463-.009V63.7c0-2.769-2.419-3.477-4.715-3.477ZM26.817,62.813c1.538,0,2.229.848,2.519,2.457H24.186A2.5,2.5,0,0,1,26.817,62.813Zm43.862,4.981a2.355,2.355,0,0,1-2.563,2.658c-1.026,0-2.094-.291-2.094-1.475a2.1,2.1,0,0,1,1.6-1.93,10.991,10.991,0,0,1,3.056-.554v1.3Z" transform="translate(-6.466 -2.834)" fill-rule="evenodd"/>
</svg>
