<svg xmlns="http://www.w3.org/2000/svg" width="167.158" height="78.326" viewBox="0 0 167.158 78.326">
  <g id="Group_97173" data-name="Group 97173" transform="translate(-3618.145 109.572)">
    <text id="AEROSpares" transform="translate(3653.233 -81.85)" fill="#e3e3e3" font-size="18" font-family="SFProDisplay-HeavyItalic, SF Pro Display" font-weight="800" font-style="italic"><tspan x="0" y="0">AEROSPARES</tspan></text>
    <text id="AEROSYSTEM" transform="translate(3670.303 -63.299)" fill="#e3e3e3" font-size="17" font-family="SFProDisplay-HeavyItalic, SF Pro Display" font-weight="800" font-style="italic"><tspan x="0" y="0">AEROSYSTEM</tspan></text>
    <path id="Path_27791" data-name="Path 27791" d="M38.9,8.506a165.607,165.607,0,0,0,34.63-1.93,133.1,133.1,0,0,1-35.218,5.106C19.514,11.682-.855.513-.855.513S20.1,7.52,38.9,8.506Z" transform="translate(3619 -65.443)" fill="#e3e3e3"/>
    <path id="Path_27792" data-name="Path 27792" d="M29.007,7.542a86.57,86.57,0,0,0,24.92-1.93,69.687,69.687,0,0,1-24.278,4.493C16.119,10.106,0,0,0,0S15.477,6.556,29.007,7.542Z" transform="translate(3645.485 -47.963) rotate(-17)" fill="#e3e3e3"/>
    <path id="Path_27793" data-name="Path 27793" d="M26.9,8.067c13.53.987,27.026-2.455,27.026-2.455a62.369,62.369,0,0,1-25.068,5.809C15.329,11.421,0,0,0,0S13.37,7.081,26.9,8.067Z" transform="translate(3662.381 -41.036) rotate(-31)" fill="#e3e3e3"/>
    <path id="Path_27794" data-name="Path 27794" d="M13.708,1.563C21.365.475,25.366.216,25.366.216s-1.352-.629-8.979.26A121.459,121.459,0,0,0,0,3.878S6.051,2.651,13.708,1.563Z" transform="translate(3724.877 -90.722) rotate(-48)" fill="#e3e3e3"/>
  </g>
</svg>
